<svg width="64px" height="64px" viewBox="0 0 64 64" fill="none" xmlns="http://www.w3.org/2000/svg" transform="rotate(0) scale(1, 1)">
  <path d="M22 50 H42 L44 56 C44 58 42 60 40 60 H24 C22 60 20 58 20 56 L22 50 Z" fill="#2bd4bd"/>
  <rect x="28" y="42" width="8" height="8" fill="#2bd4bd"/>
  
  <path d="M14 20 C10 20 6 24 6 30 C6 36 10 40 14 40 L17 40 L17 34 L14 34 C12 34 11 32 11 30 C11 28 12 26 14 26 L17 26 L17 20 L14 20 Z" fill="#2bd4bd"/>
  <path d="M50 20 C54 20 58 24 58 30 C58 36 54 40 50 40 L47 40 L47 34 L50 34 C52 34 53 32 53 30 C53 28 52 26 50 26 L47 26 L47 20 L50 20 Z" fill="#2bd4bd"/>

  <circle cx="32" cy="26" r="14" fill="#2bd4bd"/>
  <path d="M32 12 V20 M32 20 L39 24 M32 20 L25 24 M32 40 V32 M32 32 L39 28 M32 32 L25 28" stroke="#ffffff" stroke-width="2" stroke-linecap="round"/>
  <circle cx="32" cy="26" r="3" fill="#ffffff"/>
</svg>